<?xml version='1.0' encoding='UTF-8' standalone='no'?>
<svg xmlns="http://www.w3.org/2000/svg" baseProfile="tiny" xmlns:xlink="http://www.w3.org/1999/xlink" height="209.973mm" viewBox="0 0 3507 2480" width="296.926mm" version="1.2">
 <defs/>
 <g stroke-linecap="square" stroke-width="1" stroke-linejoin="bevel" fill="none" stroke="black" fill-rule="evenodd">
  <g stroke-opacity="1" stroke-linecap="square" font-size="33.3333" transform="matrix(1,0,0,1,0,0)" stroke-width="1" font-family="MS Shell Dlg 2" stroke-linejoin="bevel" fill="none" font-weight="400" font-style="normal" stroke="#000000"/>
  <g stroke-opacity="1" stroke-linecap="square" font-size="33.3333" transform="matrix(1,0,0,1,0,0)" stroke-width="1" font-family="MS Shell Dlg 2" stroke-linejoin="bevel" fill="none" font-weight="400" font-style="normal" stroke="#000000"/>
  <g stroke-opacity="1" stroke-linecap="square" font-size="33.3333" transform="matrix(11.8081,0,0,11.8081,0,0)" stroke-width="1" font-family="MS Shell Dlg 2" stroke-linejoin="bevel" fill="none" font-weight="400" font-style="normal" stroke="#000000"/>
  <g stroke-opacity="1" stroke-linecap="square" font-size="33.3333" transform="matrix(0.999751,0,0,0.999751,0,0)" stroke-width="1" font-family="MS Shell Dlg 2" stroke-linejoin="bevel" fill="none" font-weight="400" font-style="normal" stroke="#000000"/>
  <g font-size="33.3333" transform="matrix(0.999751,0,0,0.999751,0,0)" font-family="MS Shell Dlg 2" fill="#ffffff" fill-opacity="1" font-weight="400" font-style="normal" stroke="none">
   <path vector-effect="none" d="M-2,-2 L3510,-2 L3510,2483 L-2,2483 L-2,-2" fill-rule="evenodd"/>
  </g>
  <g stroke-opacity="1" stroke-linecap="square" font-size="33.3333" transform="matrix(0.999751,0,0,0.999751,0,0)" stroke-width="1" font-family="MS Shell Dlg 2" stroke-linejoin="bevel" fill="none" font-weight="400" font-style="normal" stroke="#000000"/>
  <g stroke-opacity="1" stroke-linecap="square" font-size="33.3333" transform="matrix(11.8081,0,0,11.8081,0,0)" stroke-width="1" font-family="MS Shell Dlg 2" stroke-linejoin="bevel" fill="none" font-weight="400" font-style="normal" stroke="#000000"/>
  <g stroke-opacity="1" stroke-linecap="square" font-size="33.3333" transform="matrix(11.8081,0,0,11.8081,0,0)" stroke-width="1" font-family="MS Shell Dlg 2" stroke-linejoin="bevel" fill="none" font-weight="400" font-style="normal" stroke="#000000"/>
  <g stroke-opacity="1" stroke-linecap="square" font-size="33.3333" transform="matrix(11.8081,0,0,11.8081,0,0)" stroke-width="1" font-family="MS Shell Dlg 2" stroke-linejoin="bevel" fill="none" font-weight="400" font-style="normal" stroke="#000000"/>
  <g stroke-opacity="1" stroke-linecap="square" font-size="33.3333" transform="matrix(11.8081,0,0,11.8081,0,0)" stroke-width="1" font-family="MS Shell Dlg 2" stroke-linejoin="bevel" fill="none" font-weight="400" font-style="normal" stroke="#000000"/>
  <g stroke-opacity="1" stroke-linecap="square" font-size="33.3333" transform="matrix(11.8081,0,0,11.8081,30.2948,25.9669)" stroke-width="1" font-family="MS Shell Dlg 2" stroke-linejoin="bevel" fill="none" font-weight="400" font-style="normal" stroke="#000000"/>
  <g font-size="33.3333" transform="matrix(11.8081,0,0,11.8081,30.2948,25.9669)" font-family="MS Shell Dlg 2" fill="#ffffff" fill-opacity="1" font-weight="400" font-style="normal" stroke="none">
   <rect y="0" x="0" height="205.248" width="294.434"/>
  </g>
  <g stroke-opacity="1" stroke-linecap="square" font-size="33.3333" transform="matrix(11.8081,0,0,11.8081,30.2948,25.9669)" stroke-width="1" font-family="MS Shell Dlg 2" stroke-linejoin="bevel" fill="none" font-weight="400" font-style="normal" stroke="#000000"/>
  <g stroke-opacity="1" stroke-linecap="square" font-size="33.3333" transform="matrix(11.8081,0,0,11.8081,30.2948,25.9669)" stroke-width="1" font-family="MS Shell Dlg 2" stroke-linejoin="bevel" fill="none" font-weight="400" font-style="normal" stroke="#000000"/>
  <g font-size="33.3333" transform="matrix(0.999751,0,0,0.999751,30.2948,25.9669)" font-family="MS Shell Dlg 2" fill="#000000" fill-opacity="0" font-weight="400" font-style="normal" stroke="none">
   <rect y="0" x="0" height="2424" width="3478"/>
  </g>
  <g stroke-opacity="1" stroke-linecap="square" font-size="33.3333" transform="matrix(0.999751,0,0,0.999751,30.2948,25.9669)" stroke-width="3.07087" font-family="MS Shell Dlg 2" stroke-linejoin="bevel" fill="none" font-weight="400" font-style="normal" stroke="#b7484b">
   <path vector-effect="none" d="M2861.31,1643.4 L2864.84,1650.48 L2868.97,1655.58 L2870.42,1667.69 L2875.32,1674.08 L2877.35,1684.05 L2882.06,1685.65 L2889.29,1679.71 L2895.82,1681.77 L2897.99,1688.01 L2896.21,1693.34 L2897.31,1698.59 L2902.49,1703.39 L2903.76,1711 L2907.02,1722.95 L2912.52,1729.42 L2921.66,1734.68 L2930.33,1740.08 L2947.21,1747.54 L2951.5,1754.16 L2951.28,1766.42 L2943,1774.94 L2939.42,1782.71 L2930.89,1797.63 L2912.89,1803.95 L2892.74,1804.56 L2862.27,1804.33 L2852.58,1804.86 L2847.44,1806.38" fill-rule="evenodd"/>
   <path vector-effect="none" d="M2409.08,2091.95 L2410.32,2060.67 L2412.54,2045.29 L2419.42,2034.48 L2427.4,2018.88 L2435.64,2014.23 L2437.46,2007.38 L2441.14,1996.42 L2445.64,1986.9 L2449.02,1976.02 L2454.67,1970.92 L2459.82,1957.44 L2462.07,1949.76 L2461.83,1939.63 L2462.8,1922.43 L2472.57,1898.98 L2477.4,1890.99 L2480.88,1877.59 L2490.01,1858.71 L2496.73,1835.04 L2497.06,1809.54 L2497.71,1792.03 L2502.8,1756.1 L2498.2,1714.84 L2497.67,1685.07 L2498.5,1662.31 L2492.88,1636.65" fill-rule="evenodd"/>
   <path vector-effect="none" d="M2861.31,1643.4 L2870.52,1638.91 L2876.79,1637.31 L2890.49,1633.81 L2891.16,1632.52 L2905.16,1606.25 L2924.57,1586.39 L2935.62,1584.56 L2952.05,1571.39 L2962.03,1569.03 L2975.39,1572.61 L2986.73,1568.27 L3002.45,1562.26 L3010.95,1564.16 L3024.45,1566.29 L3036.23,1560.2 L3065.31,1557.08 L3082.92,1561.49 L3107.64,1563.78 L3116.89,1563.55 L3121.55,1558.07 L3128.2,1556.93 L3134.44,1560.12 L3141.39,1557 L3145.26,1547.26 L3157.48,1538.43 L3167.07,1523.2 L3172.76,1513.31 L3186.15,1499.3 L3198.24,1494.81 L3201.86,1491.92 L3208.85,1494.28 L3220.56,1496.86 L3223.63,1499.98 L3229,1503.01 L3238.65,1511.55 L3239.5,1512.99 L3241.33,1516.06 L3241.99,1518.4 L3242.23,1519.26 L3245.53,1523.12 L3258.62,1527.94" fill-rule="evenodd"/>
   <path vector-effect="none" d="M2391.89,1559.93 L2393.51,1561.14 L2397,1564.24 L2397.03,1564.27" fill-rule="evenodd"/>
   <path vector-effect="none" d="M3146.99,1909.33 L3148.18,1911.43 L3152.11,1910.22 L3160.43,1906.71 L3172.36,1900.4 L3177.21,1901.54 L3180.96,1902.02 L3181.37,1902.07 L3187.09,1905.73 L3195.49,1914.78 L3202.66,1920.84" fill-rule="evenodd"/>
   <path vector-effect="none" d="M2847.98,1806.38 L2849.2,1808.06 L2854.36,1808.52 L2863,1808.59 L2872.99,1808.06 L2895.34,1818.18 L2920.39,1823.82 L2940.21,1819.4 L2960.31,1810.49 L2973.32,1807.53 L2980.32,1810.34 L2989.29,1815.59 L2995.41,1822.98 L3002.75,1832.42 L2998.71,1840.03 L3000.28,1849.01 L3001.42,1860.51 L3016.83,1874.06 L3028.65,1873.68 L3036.4,1877.26 L3054.13,1876.34 L3065.09,1883.88 L3070.29,1890.8 L3083.97,1896.59 L3088.74,1905.8 L3082.59,1915.55 L3080.94,1919.35 L3089.27,1917.75 L3106.1,1918.44 L3108.12,1925.82 L3123.98,1918.59 L3134.38,1910.83 L3145.88,1907.4 L3146.97,1909.3 L3146.99,1909.33" fill-rule="evenodd"/>
   <path vector-effect="none" d="M3708.66,2307.21 L3708.66,2307.2" fill-rule="evenodd"/>
   <path vector-effect="none" d="M1659.78,1362.13 L1656.9,1379.94 L1650.7,1400.57 L1636.01,1421.27 L1619.33,1441.22 L1590.93,1491.69 L1574.51,1516.66 L1563.52,1552.97 L1551.11,1586.54 L1552.3,1604.81 L1556.91,1626.88 L1553.98,1644.55 L1542.19,1659.39 L1535.94,1671.11 L1538.33,1676.06 L1558.8,1669.21 L1575.63,1655.28 L1585.84,1644.24 L1615.78,1627.04 L1645.36,1613.11 L1658.11,1600.39 L1668.81,1597.73 L1675.58,1607.7 L1665.63,1630.23 L1663.55,1664.64 L1669.21,1692.73 L1678.98,1707.96 L1695.97,1714.35 L1721.29,1713.82 L1736.44,1712.52 L1751.41,1716.56 L1752.16,1729.58 L1766.88,1742.44 L1776.99,1753.48 L1804.2,1768.32 L1852.66,1770.68 L1891.93,1788.88 L1908.99,1798.31 L1963.83,1807.37 L1978.91,1803.34 L2032.15,1796.03 L2064.33,1796.64 L2078.46,1791.16 L2085.13,1777.69 L2090.78,1765.96 L2113.01,1750.13 L2137.09,1741.53 L2164.64,1738.94 L2192.21,1743.13 L2223.73,1754.39 L2248.56,1771.9 L2274.09,1786.29 L2287.54,1790.25 L2305.7,1788.27 L2329.79,1773.96 L2347.64,1764.82 L2366.51,1760.79 L2380.46,1753.63 L2387.82,1744.34 L2376.57,1717.62 L2379.28,1703.24 L2406.38,1694.41 L2413.71,1683.37 L2402.55,1673.47 L2397.88,1661.75 L2404.04,1639.9 L2421.87,1629.62 L2448.86,1629.24 L2468.83,1632.9 L2492.3,1636.78" fill-rule="evenodd"/>
   <path vector-effect="none" d="M2492.3,1636.78 L2509.22,1647.29 L2548.27,1656.19 L2580.66,1663.5 L2599.57,1663.42 L2620.31,1662.21 L2643.81,1662.66 L2671.08,1661.06 L2723,1652.84 L2757.19,1643.63 L2774.75,1639.9 L2789.37,1650.41 L2792.04,1663.42 L2788.79,1676.9 L2792.06,1687.94 L2803.74,1690.9 L2817.44,1721.58 L2807.43,1742.59 L2797.25,1760.1 L2806.62,1778.52 L2818.16,1779.97 L2834.13,1789.41 L2844.53,1802.5 L2847.44,1806.38" fill-rule="evenodd"/>
   <path vector-effect="none" d="M2314.72,1489.59 L2316.27,1486.7 L2319.1,1483.56 L2320.79,1480.74 L2322.49,1478.2 L2324.75,1475.66 L2325.59,1472.27 L2324.75,1468.03 L2324.11,1463.55 L2324.75,1460.13 L2324.47,1456.46 L2323.62,1453.07 L2325.88,1449.11 L2327.57,1447.42 L2328.7,1445.16 L2330.11,1442.62 L2332.37,1440.08 L2333.23,1438.13 L2334.14,1435.84 L2335.5,1432.95 L2336.5,1430.82 L2337.84,1426.41 L2338.46,1423.06 L2339.99,1420.88 L2341.41,1419.19 L2343.1,1417.77 L2345.92,1415.8 L2349.03,1414.1 L2351.85,1411 L2353.55,1408.17 L2355.52,1404.5 L2358.06,1401.68 L2359.76,1398.29 L2362.02,1396.03 L2364.56,1392.93 L2367.38,1390.39 L2367.95,1387.84 L2367.66,1384.74 L2367.66,1380.5 L2367.95,1377.4 L2367.95,1373.73 L2366.54,1370.06 L2365.97,1367.52 L2364.84,1364.04 L2364.05,1361.4 L2363.87,1359.11 L2367.04,1358.27 L2368.46,1361.4 L2370.21,1365.28 L2371.83,1368.93 L2373.88,1371.1 L2376.98,1369.12 L2378.68,1364.89 L2380.94,1362.07 L2383.48,1357.27 L2386.97,1354.93 L2396.18,1349.64 L2408.61,1352.01 L2422.06,1354.09 L2427.81,1352.3 L2432.32,1353.14 L2437.97,1354.27 L2461.93,1354.24 L2484.07,1353.71 L2510.24,1356.9 L2518.29,1357.29 L2521.93,1357.51 L2525.94,1357.67 L2531.05,1357.97 L2535.29,1359.57 L2539.72,1361.24 L2543.97,1362.92 L2548.76,1364.75 L2555.63,1367.33 L2557.99,1368.25 L2562.26,1368.86 L2568.19,1369.69 L2570.51,1370 L2573.07,1370.38 L2576,1370.76 L2579.38,1371.22 L2583.26,1371.75 L2590.59,1370.23 L2594.97,1369.39 L2598.06,1367.68 L2602.02,1364.58 L2605.12,1358.65 L2606.53,1356.11" fill-rule="evenodd"/>
   <path vector-effect="none" d="M2606.53,1356.11 L2627.88,1364.06" fill-rule="evenodd"/>
   <path vector-effect="none" d="M2492.88,1636.65 L2492.3,1633.99 L2492.05,1632.85 L2472.1,1609.94 L2454.52,1604.61 L2444.06,1598.06 L2436.23,1593.95 L2425.97,1577.05 L2406.45,1566.09 L2397,1564.24 L2396.36,1564.11" fill-rule="evenodd"/>
   <path vector-effect="none" d="M3202.66,1920.84 L3212.71,1929.32 L3215.23,1929.02 L3219.83,1928.41 L3226.96,1928.79 L3227.84,1925.29 L3225.08,1920.04 L3228.24,1917.75 L3232.21,1920.72 L3237.2,1919.05 L3246.89,1918.36 L3252.31,1912.88 L3265.5,1913.03 L3287.54,1923.39 L3292.8,1917.6 L3306.44,1916.69 L3331.15,1917.3 L3354.67,1920.49 L3354.71,1906.11 L3357.04,1892.71 L3363.7,1890.27 L3370.96,1887.91 L3378.43,1895.3 L3383.34,1903.44 L3384.5,1917.22 L3387.04,1954.98 L3381.44,1978.96 L3385.34,1994.56 L3401.16,2024.25 L3415.53,2042.52 L3427.55,2049.37 L3438.14,2068.71 L3448.52,2079.14 L3462.49,2084.46 L3471.53,2097.86 L3482.21,2128.77 L3486.29,2173.23" fill-rule="evenodd"/>
   <path vector-effect="none" d="M209.843,2310.19 L211.584,2310.18 L213.325,2310.17 L214.479,2309 L214.464,2306.66 L214.456,2305.49 L215.756,2304.72 L217.354,2304.89 L221.424,2306.03 L224.914,2307.18 L226.648,2306.59 L227.805,2305.41 L229.531,2303.06 L231.837,2300.71 L231.799,2294.88 L230.604,2289.63 L227.096,2285.57 L223.587,2281.51 L219.513,2279.79 L210.788,2276.92 L201.491,2275.23 L194.526,2275.28 L178.272,2274.8 L162.326,2274.74 L155.065,2276.12 L148.684,2276.74 L145.79,2277.93 L143.465,2277.36 L141.716,2276.21 L138.807,2275.06 L137.065,2275.07 L135.912,2276.24 L135.927,2278.58 L134.198,2280.34 L130.734,2283.28 L125.549,2289.15 L122.657,2292.12" fill-rule="evenodd"/>
   <path vector-effect="none" d="M194.897,2299.76 L192.767,2302.12 L189.296,2303.9 L181.192,2307.45 L176.564,2309.82 L166.119,2310.47 L159.161,2311.68 L156.866,2315.78 L153.415,2320.47 L148.79,2323.42 L142.405,2323.46 L133.725,2327.61 L130.269,2331.71 L127.41,2338.15 L123.943,2340.51 L116.988,2342.3 L108.285,2342.95 L96.0988,2343.61 L91.4628,2344.81 L88.5837,2348.33 L81.0647,2352.46 L75.8559,2354.83 L67.7331,2355.47 L61.9399,2357.26 L58.4609,2357.86 L55.5469,2356.13 L53.186,2350.31 L46.7696,2345.69 L42.114,2343.97 L39.2077,2343.41 L37.4702,2344 L34.0145,2348.11 L29.3785,2349.31 L26.4955,2352.24 L25.354,2355.17 L21.8828,2356.94 L17.8506,2361.64 L16.1325,2365.15 L12.0964,2369.26 L9.20175,2370.45 L5.72275,2371.05 L3.96964,2369.31 L2.79699,2367.57 L2.78142,2365.24 L4.50729,2362.89 L7.97071,2359.95 L9.11222,2357.03 L10.8303,2353.51 L11.3758,2348.26 L11.3641,2346.51 L12.4978,2342.42 L14.808,2340.65 L18.2792,2338.88 L21.17,2337.11 L22.3154,2334.77 L21.1427,2333.02 L19.9701,2331.28 L20.5389,2329.53 L21.6959,2328.94 L23.4374,2328.92 L27.5008,2328.9 L29.811,2327.13 L31.0057,2325.76" fill-rule="evenodd"/>
   <path vector-effect="none" d="M798.81,638.029 L794.264,628.785 L787.948,617.251 L779.709,601.872 L773.118,591.711 L763.232,575.509 L753.62,559.855 L746.755,549.145 L741.537,539.808 L735.495,533.766 L716.547,517.015 L699.52,501.361 L675.354,479.392 L656.954,464.013 L641.568,448.614 L630.912,439.298 L626.249,434.742" fill-rule="evenodd"/>
   <path vector-effect="none" d="M624.382,433.223 L622.061,431.221 L619.88,428.879 L617.895,426.65" fill-rule="evenodd"/>
   <path vector-effect="none" d="M2627.88,1364.06 L2640.78,1367.94 L2652.03,1372.97 L2669.49,1377.53 L2683.05,1387.28 L2709.76,1392.61 L2723.46,1401.28 L2736.98,1406.79 L2755.96,1412.4 L2757.47,1414.09 L2768.74,1412.6 L2781.94,1426.86 L2795.14,1442.7 L2807.28,1456.95 L2826.82,1479.65 L2836.85,1492.85 L2848.46,1509.75 L2854.8,1522.94 L2857.44,1531.39 L2859.02,1549.34 L2858.49,1563.07 L2856.38,1573.1 L2853.74,1582.6 L2847.94,1585.57 L2838.06,1589.53 L2835.52,1596.3 L2837.27,1605.9 L2845.67,1613.75 L2850.87,1621.28 L2853.81,1630.65 L2861.31,1640.62" fill-rule="evenodd"/>
   <path vector-effect="none" d="M420.093,996.212 L419.926,996.067" fill-rule="evenodd"/>
   <path vector-effect="none" d="M420.093,996.212 L419.926,996.067" fill-rule="evenodd"/>
   <path vector-effect="none" d="M419.926,996.067 L419.129,995.376 L417.671,993.47 L416.423,991.675 L414.757,989.94 L413.425,988.174 L413.015,986.261 L411.956,984.662 L410.86,983.599 L409.78,981.803 L409.643,980.141 L409.825,979.238 L409.269,977.495 L408.484,976.007 L407.241,974.889 L405.79,974.025 L404.36,973.217 L402.838,971.143 L401.173,969.604 L400.096,968.372 L398.772,967.592 L397.778,966.162 L396.885,964.28 L396.439,963.325 L395.902,961.385 L395.18,959.896 L394.081,958.467 L393.318,957.119 L392.45,955.66 L390.956,954.74 L389.898,953.141 L388.842,951.824 L388.348,949.94 L387.729,948.225 L387.425,946.678 L386.948,944.23 L386.83,942.286" fill-rule="evenodd"/>
   <path vector-effect="none" d="M493.272,976.67 L491.226,977.586 L489.261,978.191 L487.091,979.417 L485.34,980.528 L483.838,981.44 L482.207,981.789 L480.26,981.915 L478.65,982.377 L476.597,982.335 L474.549,982.969 L472.267,983.181 L471.419,984.68 L470.359,985.871 L470.056,987.507 L469.736,989.735 L468.193,990.76 L466.841,992.122 L465.404,993.343 L463.759,994.763 L462.318,995.337 L461.091,996.697 L459,997.191 L456.784,997.825 L454.014,1000.1 L452.701,1001.04 L450.946,1001.75 L449.679,1003.26 L448.372,1005.18 L446.96,1006.94 L445.586,1008.24 L444.61,1009.46 L442.774,1010.54 L440.547,1012.53 L439.972,1014.25 L438.285,1015.62 L436.805,1016.64 L435.047,1016.88 L434.031,1018.41 L433.014,1019.88 L430.141,1019.34 L427.827,1017.86 L426.249,1016.8 L425.131,1015.54 L424.906,1013.31 L424.852,1011.59 L424.716,1010.07 L424.072,1007.63 L424.312,1006.08 L423.543,1003.8 L422.546,1001.89 L421.759,1000.18 L420.803,998.211 L420.141,996.384 L420.093,996.212" fill-rule="evenodd"/>
   <path vector-effect="none" d="M322.786,958.297 L320.073,956.597 L318.178,955.088 L316.829,953.885 L315.608,952.879 L314.407,951.817 L313.455,950.414 L311.902,949.889 L310.368,949.223 L308.794,948.642 L307.322,947.722 L306.058,946.603 L304.752,945.541 L303.258,944.453 L301.932,943.56 L300.522,942.555 L299.32,941.323 L297.431,940.716 L295.917,939.768 L294.506,938.622 L293.514,937.445 L292.022,936.751 L289.187,935.558 L287.19,934.388 L285.717,933.468 L284.475,932.434 L282.914,930.838 L281.734,929.635 L280.511,928.403 L279.12,927.116" fill-rule="evenodd"/>
   <path vector-effect="none" d="M386.83,942.286 L386.901,940.426 L386.514,938.851 L386.691,937.159 L386.89,935.552 L387.969,934.08 L388.121,931.853 L387.713,930.278 L386.741,929.016 L385.751,928.262 L384.039,929.006 L382.507,928.481 L380.372,928.777 L379.27,929.996 L377.745,930.486 L375.621,932.36 L375.024,933.857 L374.342,935.27 L374.377,937.299 L373.096,939.928 L372.333,941.68 L371.567,943.065 L371.18,944.589 L370.355,946.511 L369.992,948.598 L369.751,950.206 L368.883,951.874 L368.663,953.425 L369.535,955.42 L368.459,957.287 L367.28,959.492 L366.304,960.795 L365.919,962.77 L365.43,964.689 L365.086,966.495 L364.719,968.047 L364.563,969.795 L364.302,971.374 L362.592,972.541 L360.584,972.949 L359.091,972.086 L357.662,971.363 L356.378,970.357 L354.632,969.213 L353.269,969.082 L351.508,968.699 L349.621,968.486 L348.029,968.497 L346.059,968.228 L344.406,968.437 L342.313,968.648 L340.112,968.494 L337.238,967.696 L335.308,967.202 L333.521,966.312 L332.403,965.136 L330.425,963.684 L328.66,962.794 L326.977,961.791 L325.209,960.451 L324.028,959.247 L322.786,958.297" fill-rule="evenodd"/>
   <path vector-effect="none" d="M278.764,927.147 L277.184,925.833 L275.858,924.743 L274.261,923.993 L272.77,923.326 L270.669,922.298 L268.778,921.437 L267.114,919.983 L264.641,919.746 L263.047,919.362 L261.053,918.699 L258.517,918.547 L256.608,917.996 L254.722,917.839 L252.704,916.726 L250.815,916.034 L248.901,914.835 L247.317,912.873 L246.17,910.429 L244.76,909.368 L243.241,907.659 L241.992,905.752" fill-rule="evenodd"/>
   <path vector-effect="none" d="M241.992,905.752 L239.23,902.896 L238.3,901.662 L237.349,900.373 L236.627,898.884 L235.906,897.395 L234.888,895.571 L234.433,893.235 L234.171,891.631 L233.739,889.577 L233.176,886.763 L232.496,885.331 L231.711,883.843 L231.173,881.648 L230.18,880.246 L230.337,878.667 L229.653,876.587 L228.973,875.154 L228.521,873.27 L227.113,872.546 L225.934,871.568 L224.002,870.792 L222.306,870.831 L219.628,871.159 L217.448,870.976 L215.915,870.366 L213.321,870.693 L211.123,870.82 L209.534,871.338 L207.886,872.222 L206.302,873.416 L204.972,875.031 L203.687,876.983 L202.482,878.513 L201.11,880.099 L199.588,881.067 L199.015,883.128 L198.483,885.076 L197.849,887.306 L196.957,888.579 L195.375,890.083 L194.377,891.245 L193.507,892.631 L192.849,894.523 L192.663,894.919 L194.443,894.935 L196.768,894.948 L198.383,895.332 L200.6,894.923 L202.294,894.433 L203.904,894.141 L205.689,894.862 L205.534,896.694 L205.066,898.782 L204.555,900.786 L203.586,903.131 L203.157,904.74 L203.732,906.201 L205.744,906.329 L207.193,907.052 L208.791,907.999" fill-rule="evenodd"/>
   <path vector-effect="none" d="M147.59,978.3 L155.746,960.24 L161.571,944.511 L172.058,932.859 L182.544,917.712 L189.535,904.313 L194.443,894.935" fill-rule="evenodd"/>
   <path vector-effect="none" d="M31.0057,2325.76 L37.9183,2324.16 L70.4253,2323.94 L74.4809,2322.75 L79.0897,2317.47 L84.2712,2311.02 L91.7785,2305.13 L97.5444,2299.26 L104.475,2293.96 L109.107,2292.18 L117.815,2292.12 L122.657,2292.12 L133.711,2292.11 L153.257,2291.26 L168.897,2291.78 L175.886,2295.23 L185.782,2299.25 L194.897,2299.76 L204.599,2298.52 L210.75,2300.25 L211.893,2304.01 L211.962,2307.83 L209.843,2310.19 L205.023,2311.96 L200.387,2313.16 L197.504,2316.09 L195.206,2319.61 L190.62,2328.39 L182.575,2340.7 L176.825,2348.91 L167.595,2357.72 L159.504,2363.02 L149.09,2368.35 L140.971,2369.57 L132.852,2370.79 L127.647,2373.74 L124.192,2377.85 L118.434,2384.89 L112.079,2389.6 L102.796,2390.24 L99.0092,2391.66 L90.6483,2396.74 L83.1604,2405.54 L75.6803,2415.51 L65.3134,2427.83 L57.2256,2433.72 L50.287,2437.85 L48.5767,2442.53 L48.0235,2446.62 L43.4925,2463.57 L43.633,2491.81 L40.2339,2501.16 L53.8307,2537.7 L58.0235,2553.33 L63.9918,2577.79 L66.9954,2592.94 L67.7315,2616.27 L60.4872,2641.21" fill-rule="evenodd"/>
   <path vector-effect="none" d="M2345.52,1519.05 L2347.66,1524.07 L2348.58,1527.5" fill-rule="evenodd"/>
   <path vector-effect="none" d="M2348.58,1527.5 L2349.51,1530.92 L2350.16,1534.58 L2351.92,1536.48 L2357.48,1538.16 L2361.15,1538.69" fill-rule="evenodd"/>
   <path vector-effect="none" d="M2383.34,1548.81 L2385.62,1552.09 L2388.59,1556.27 L2391,1559.32 L2391.75,1559.85 L2391.89,1559.93" fill-rule="evenodd"/>
   <path vector-effect="none" d="M2751.13,1410.97 L2757.28,1400.14 L2766.63,1387.63 L2769.82,1367 L2778.41,1360.07 L2777.9,1352.08 L2777.05,1338.91 L2778.48,1326.04 L2785.09,1319.12 L2791.89,1294.38 L2798.6,1278.16 L2814.24,1260.27 L2816.87,1247.26 L2821.34,1234.77 L2828.21,1219.39 L2836.33,1212.24 L2850.06,1202.57" fill-rule="evenodd"/>
   <path vector-effect="none" d="M3058.54,2363.87 L3058.37,2356.07 L3059.45,2353.87 L3067.38,2346.94 L3069.35,2343.67 L3076.02,2329.05 L3079.36,2324.33 L3081.26,2322.43 L3084.04,2317.17 L3092.11,2307.96 L3093.54,2305.6 L3102.25,2295.94 L3104.48,2291.6 L3106.1,2284.36 L3106.26,2277.97 L3103.22,2274.24 L3100.14,2273.02 L3080.72,2274.85 L3078.21,2274.7 L3075.22,2272.87 L3073.87,2270.21 L3074.92,2267.08 L3080.3,2257.95 L3089.88,2245.54 L3090.36,2241.35 L3084.6,2235.87 L3080.37,2232.6 L3075.26,2227.42 L3074.12,2225.67" fill-rule="evenodd"/>
   <path vector-effect="none" d="M3058.54,2363.87 L3071.87,2357.32 L3076,2357.32 L3081.82,2353.04 L3085.18,2352.89 L3087.93,2353.35 L3090.69,2352.28 L3094.51,2352.74 L3094.97,2354.11 L3093.9,2356.41 L3091.91,2359.01 L3091.61,2362.68 L3090.23,2366.81 L3085.95,2374.46 L3085.79,2377.97 L3086.71,2380.57 L3088.85,2380.57 L3091.76,2374 L3096.19,2371.55 L3097.42,2371.86 L3096.65,2383.02 L3097.88,2386.69 L3097.72,2393.88 L3099.1,2394.04 L3100.32,2392.81 L3101.24,2389.6 L3101.24,2385.32 L3102.77,2379.2 L3103.08,2375.37 L3105.22,2372.62 L3109.5,2369.1 L3111.49,2368.95 L3111.8,2370.78 L3110.27,2383.17 L3110.27,2386.85 L3111.64,2391.13 L3113.48,2391.89 L3115.16,2389.75 L3115.62,2386.08 L3116.84,2385.32 L3118.37,2386.39 L3121.13,2393.27 L3122.96,2395.87 L3126.18,2398.47 L3128.93,2397.71 L3131.53,2396.02 L3133.82,2396.18 L3139.02,2400.92 L3141.93,2402.14 L3144.38,2402.45 L3146.06,2402.45 L3146.06,2400.31 L3147.9,2398.78 L3150.5,2399.85 L3152.49,2399.54 L3153.71,2398.01 L3160.13,2395.11 L3169.01,2394.04 L3170.84,2392.05 L3171.91,2389.75 L3176.5,2387.61 L3178.34,2387.61 L3181.85,2386.69 L3182.31,2385.01 L3186.75,2383.17 L3188.74,2381.65 L3190.73,2382.72 L3195.16,2383.94 L3198.37,2382.26 L3201.89,2381.49 L3209.85,2385.16 L3215.35,2382.87 L3218.87,2377.82 L3221.47,2377.06 L3224.07,2375.22 L3229.89,2368.34 L3231.41,2365.28 L3236.31,2362.52 L3242.89,2362.22 L3246.1,2360.84 L3247.93,2358.39 L3250.69,2356.87 L3256.81,2351.21 L3260.02,2349.37 L3268.43,2348.45 L3279.29,2349.52 L3281.13,2348.6 L3286.02,2343.1 L3287.09,2340.65 L3288.62,2339.27 L3291.84,2338.51 L3297.8,2338.82 L3301.32,2337.9 L3304.07,2334.38 L3304.38,2331.78 L3306.37,2326.73 L3313.25,2320 L3314.17,2314.49 L3317.69,2311.74 L3318.76,2308.53 L3317.99,2305.01 L3319.52,2301.64 L3325.03,2297.97 L3330.69,2290.94 L3331.3,2287.42 L3330.84,2283.75 L3331.45,2280.38 L3332.83,2277.17 L3334.97,2274.26 L3338.34,2272.28 L3340.33,2270.44 L3342.31,2266.92 L3345.07,2263.86 L3346.44,2261.11 L3348.28,2260.34 L3349.5,2257.74 L3349.81,2254.84 L3351.19,2252.24 L3357.15,2249.48 L3360.06,2246.88 L3366.79,2238.78 L3370.61,2236.02 L3371.53,2233.58 L3373.37,2232.51 L3375.66,2232.05 L3380.86,2228.22 L3385.45,2226.08 L3390.04,2222.1 L3394.63,2219.66 L3397.08,2216.44 L3403.04,2215.07 L3407.32,2212.16 L3409.92,2212.16 L3412.07,2210.02 L3413.6,2206.81 L3420.33,2202.37 L3424.91,2196.71 L3428.74,2195.79 L3431.49,2196.86 L3432.72,2198.39 L3435.93,2200.23 L3441.74,2195.03 L3446.48,2196.41 L3449.39,2195.49 L3451.68,2193.96 L3453.67,2193.65 L3459.64,2194.88 L3462.54,2194.88 L3467.74,2188.3 L3469.89,2187.07 L3472.79,2186.92 L3475.55,2186.16 L3477.84,2184.78 L3477.99,2182.18 L3480.75,2177.44 L3481.97,2175.91 L3483.35,2175.3" fill-rule="evenodd"/>
   <path vector-effect="none" d="M2717.58,2666.4 L2718.79,2661.18 L2716.05,2653.26 L2709.72,2650.78 L2704.62,2647.2 L2698.24,2639.8 L2691.84,2628.14 L2690.07,2620.65 L2695.03,2613.22 L2694.66,2602.78 L2697.98,2599.97 L2704.11,2597.67 L2711,2585.93 L2713.04,2579.55 L2714.52,2571.81 L2718.66,2570.61 L2724.28,2569.85 L2730.91,2570.61 L2736.79,2567.8 L2744.7,2565 L2755.78,2564.81 L2763.7,2568.61 L2781.82,2573.64 L2791.31,2569.42 L2794.99,2569.85 L2799.24,2572.09 L2811.2,2575.01 L2830.08,2573.79 L2836.63,2567.85 L2845.91,2551.87 L2862.81,2543.04 L2871.03,2538.01 L2878.19,2531.31 L2885.35,2526.14 L2896.46,2511.06 L2910.92,2502.54 L2920.52,2501.78 L2929.65,2498.73 L2944.27,2486.09 L2957.36,2477.11 L2963.45,2470.72 L2970.61,2465.39 L2979.13,2452.14 L2985.68,2447.73 L2991.77,2441.94 L2994.97,2433.27 L2999.84,2425.96 L3004.86,2420.02 L3008.06,2412.26 L3012.93,2405.25 L3018.89,2399.3 L3023.75,2392.92 L3025.87,2386.68 L3032.27,2381.5 L3040.18,2376.93 L3054.04,2366.43 L3057.97,2364.18" fill-rule="evenodd"/>
   <path vector-effect="none" d="M3057.98,2364.13 L3058.54,2363.87" fill-rule="evenodd"/>
   <path vector-effect="none" d="M2883.51,1635.6 L2879.23,1628.63 L2877.42,1620.98 L2875.66,1612.6 L2870.98,1609.1 L2869.84,1602.45 L2868.56,1597.41 L2865.94,1593.59 L2860.1,1591.57 L2854.26,1590.36 L2852.24,1590.36 L2846.79,1587.99 L2845.32,1586.62" fill-rule="evenodd"/>
  </g>
  <g stroke-opacity="1" stroke-linecap="square" font-size="33.3333" transform="matrix(11.8081,0,0,11.8081,30.2948,25.9669)" stroke-width="1" font-family="MS Shell Dlg 2" stroke-linejoin="bevel" fill="none" font-weight="400" font-style="normal" stroke="#000000"/>
  <g stroke-opacity="1" stroke-linecap="square" font-size="33.3333" transform="matrix(11.8081,0,0,11.8081,30.2948,25.9669)" stroke-width="1" font-family="MS Shell Dlg 2" stroke-linejoin="bevel" fill="none" font-weight="400" font-style="normal" stroke="#000000"/>
  <g stroke-opacity="1" stroke-linecap="square" font-size="33.3333" transform="matrix(11.8081,0,0,11.8081,30.2948,25.9669)" stroke-width="1" font-family="MS Shell Dlg 2" stroke-linejoin="bevel" fill="none" font-weight="400" font-style="normal" stroke="#000000"/>
  <g stroke-opacity="1" stroke-linecap="square" font-size="33.3333" transform="matrix(1,0,0,1,0,0)" stroke-width="1" font-family="MS Shell Dlg 2" stroke-linejoin="bevel" fill="none" font-weight="400" font-style="normal" stroke="#000000"/>
  <g stroke-opacity="1" stroke-linecap="square" font-size="33.3333" transform="matrix(11.8081,0,0,11.8081,30.2948,25.9669)" stroke-width="1" font-family="MS Shell Dlg 2" stroke-linejoin="bevel" fill="none" font-weight="400" font-style="normal" stroke="#000000"/>
  <g stroke-opacity="1" stroke-linecap="square" font-size="33.3333" transform="matrix(11.8081,0,0,11.8081,30.2948,25.9669)" stroke-width="1" font-family="MS Shell Dlg 2" stroke-linejoin="bevel" fill="none" font-weight="400" font-style="normal" stroke="#000000"/>
  <g stroke-opacity="1" stroke-linecap="square" font-size="33.3333" transform="matrix(11.8081,0,0,11.8081,30.2948,25.9669)" stroke-width="1" font-family="MS Shell Dlg 2" stroke-linejoin="bevel" fill="none" font-weight="400" font-style="normal" stroke="#000000"/>
  <g stroke-opacity="1" stroke-linecap="square" font-size="33.3333" transform="matrix(11.8081,0,0,11.8081,30.2948,25.9669)" stroke-width="1" font-family="MS Shell Dlg 2" stroke-linejoin="bevel" fill="none" font-weight="400" font-style="normal" stroke="#000000"/>
  <g stroke-opacity="1" stroke-linecap="square" font-size="33.3333" transform="matrix(1,0,0,1,0,0)" stroke-width="1" font-family="MS Shell Dlg 2" stroke-linejoin="bevel" fill="none" font-weight="400" font-style="normal" stroke="#000000"/>
 </g>
 <metadata id="qgismetadata">
  <rdf:RDF>
   <cc:Work>
    <dc:format>image/svg+xml</dc:format>
    <dc:title></dc:title>
    <dc:date>2018-12-28T15:16:32</dc:date>
    <dc:identifier></dc:identifier>
    <dc:description></dc:description>
    <dc:creator>
     <cc:Agent>
      <dc:title>Michael</dc:title>
     </cc:Agent>
    </dc:creator>
    <dc:publisher>
     <cc:Agent>
      <dc:title>QGIS 3.4.2-Madeira</dc:title>
     </cc:Agent>
    </dc:publisher>
    <dc:subject>
     <rdf:Bag/>
    </dc:subject>
   </cc:Work>
  </rdf:RDF>
 </metadata>
</svg>
